<svg width="20" height="20" viewBox="0 0 20 20" fill="none" xmlns="http://www.w3.org/2000/svg">
<mask id="mask0_156_583" style="mask-type:alpha" maskUnits="userSpaceOnUse" x="0" y="0" width="20" height="20">
<rect width="20" height="20" fill="#D9D9D9"/>
</mask>
<g mask="url(#mask0_156_583)">
<path d="M4.87508 14.25C5.58341 13.7083 6.37508 13.2812 7.25008 12.9687C8.12508 12.6562 9.04175 12.5 10.0001 12.5C10.9584 12.5 11.8751 12.6562 12.7501 12.9687C13.6251 13.2812 14.4167 13.7083 15.1251 14.25C15.6112 13.6806 15.9897 13.0347 16.2605 12.3125C16.5313 11.5903 16.6667 10.8194 16.6667 10C16.6667 8.15278 16.0174 6.57986 14.7188 5.28125C13.4202 3.98264 11.8473 3.33333 10.0001 3.33333C8.15286 3.33333 6.57994 3.98264 5.28133 5.28125C3.98272 6.57986 3.33341 8.15278 3.33341 10C3.33341 10.8194 3.46883 11.5903 3.73966 12.3125C4.0105 13.0347 4.38897 13.6806 4.87508 14.25ZM10.0001 10.8333C9.18064 10.8333 8.48967 10.5521 7.92717 9.98958C7.36467 9.42708 7.08341 8.73611 7.08341 7.91666C7.08341 7.09722 7.36467 6.40625 7.92717 5.84375C8.48967 5.28125 9.18064 5 10.0001 5C10.8195 5 11.5105 5.28125 12.073 5.84375C12.6355 6.40625 12.9167 7.09722 12.9167 7.91666C12.9167 8.73611 12.6355 9.42708 12.073 9.98958C11.5105 10.5521 10.8195 10.8333 10.0001 10.8333ZM10.0001 18.3333C8.8473 18.3333 7.76397 18.1146 6.75008 17.6771C5.73619 17.2396 4.85425 16.6458 4.10425 15.8958C3.35425 15.1458 2.7605 14.2639 2.323 13.25C1.8855 12.2361 1.66675 11.1528 1.66675 10C1.66675 8.84722 1.8855 7.76389 2.323 6.75C2.7605 5.73611 3.35425 4.85416 4.10425 4.10416C4.85425 3.35416 5.73619 2.76041 6.75008 2.32291C7.76397 1.88541 8.8473 1.66666 10.0001 1.66666C11.1529 1.66666 12.2362 1.88541 13.2501 2.32291C14.264 2.76041 15.1459 3.35416 15.8959 4.10416C16.6459 4.85416 17.2397 5.73611 17.6772 6.75C18.1147 7.76389 18.3334 8.84722 18.3334 10C18.3334 11.1528 18.1147 12.2361 17.6772 13.25C17.2397 14.2639 16.6459 15.1458 15.8959 15.8958C15.1459 16.6458 14.264 17.2396 13.2501 17.6771C12.2362 18.1146 11.1529 18.3333 10.0001 18.3333ZM10.0001 16.6667C10.7362 16.6667 11.4306 16.559 12.0834 16.3437C12.7362 16.1285 13.3334 15.8194 13.8751 15.4167C13.3334 15.0139 12.7362 14.7049 12.0834 14.4896C11.4306 14.2743 10.7362 14.1667 10.0001 14.1667C9.26397 14.1667 8.56953 14.2743 7.91675 14.4896C7.26397 14.7049 6.66675 15.0139 6.12508 15.4167C6.66675 15.8194 7.26397 16.1285 7.91675 16.3437C8.56953 16.559 9.26397 16.6667 10.0001 16.6667ZM10.0001 9.16666C10.3612 9.16666 10.6598 9.04861 10.8959 8.8125C11.132 8.57639 11.2501 8.27778 11.2501 7.91666C11.2501 7.55555 11.132 7.25694 10.8959 7.02083C10.6598 6.78472 10.3612 6.66666 10.0001 6.66666C9.63897 6.66666 9.34036 6.78472 9.10425 7.02083C8.86814 7.25694 8.75008 7.55555 8.75008 7.91666C8.75008 8.27778 8.86814 8.57639 9.10425 8.8125C9.34036 9.04861 9.63897 9.16666 10.0001 9.16666Z" fill="#1C1B1F"/>
</g>
</svg>
