<svg width="17" height="16" viewBox="0 0 17 16" fill="none" xmlns="http://www.w3.org/2000/svg">
<path d="M9.69375 6.78752L6.50625 3.60002L7.575 2.55002L9.69375 4.66877L13.95 0.431274L15 1.48127L9.69375 6.78752ZM5.25 12.375L10.4625 13.8L14.925 12.4125C14.8625 12.3 14.7719 12.2032 14.6531 12.1219C14.5344 12.0407 14.4 12 14.25 12H10.4625C10.125 12 9.85625 11.9875 9.65625 11.9625C9.45625 11.9375 9.25 11.8875 9.0375 11.8125L7.29375 11.2313L7.70625 9.76877L9.225 10.275C9.4375 10.3375 9.6875 10.3875 9.975 10.425C10.2625 10.4625 10.6875 10.4875 11.25 10.5C11.25 10.3625 11.2094 10.2313 11.1281 10.1063C11.0469 9.98128 10.95 9.90003 10.8375 9.86252L6.45 8.25003H5.25V12.375ZM0.75 15V6.75003H6.45C6.5375 6.75003 6.625 6.7594 6.7125 6.77815C6.8 6.7969 6.88125 6.81878 6.95625 6.84378L11.3625 8.47503C11.775 8.62503 12.1094 8.88753 12.3656 9.26253C12.6219 9.63753 12.75 10.05 12.75 10.5H14.25C14.875 10.5 15.4062 10.7063 15.8438 11.1188C16.2812 11.5313 16.5 12.075 16.5 12.75V13.5L10.5 15.375L5.25 13.9125V15H0.75ZM2.25 13.5H3.75V8.25003H2.25V13.5Z" fill="white"/>
</svg>
