<svg width="18" height="19" viewBox="0 0 18 19" fill="none" xmlns="http://www.w3.org/2000/svg">
<mask id="mask0_2068_167" style="mask-type:alpha" maskUnits="userSpaceOnUse" x="0" y="0" width="18" height="19">
<rect y="0.5" width="18" height="18" fill="#D9D9D9"/>
</mask>
<g mask="url(#mask0_2068_167)">
<path d="M7.5 13.25H10.5V11.75H7.5V13.25ZM7.5 10.25H12.75V8.75H7.5V10.25ZM5.25 7.25H12.75V5.75H5.25V7.25ZM4.96875 17C3.98125 17 3.14062 16.6531 2.44688 15.9594C1.75313 15.2656 1.40625 14.425 1.40625 13.4375C1.40625 12.725 1.59063 12.0875 1.95938 11.525C2.32812 10.9625 2.8125 10.5375 3.4125 10.25H1.5V8.75H6V13.25H4.5V11.4312C4.0375 11.5312 3.65625 11.7688 3.35625 12.1438C3.05625 12.5188 2.90625 12.95 2.90625 13.4375C2.90625 14.0125 3.10938 14.5 3.51562 14.9C3.92188 15.3 4.40625 15.5 4.96875 15.5V17ZM7.5 16.25V14.75H14.25V4.25H3.75V7.25H2.25V4.25C2.25 3.8375 2.39687 3.48438 2.69062 3.19063C2.98438 2.89688 3.3375 2.75 3.75 2.75H14.25C14.6625 2.75 15.0156 2.89688 15.3094 3.19063C15.6031 3.48438 15.75 3.8375 15.75 4.25V14.75C15.75 15.1625 15.6031 15.5156 15.3094 15.8094C15.0156 16.1031 14.6625 16.25 14.25 16.25H7.5Z" fill="#D1026A"/>
</g>
</svg>
