<svg width="20" height="21" viewBox="0 0 20 21" fill="none" xmlns="http://www.w3.org/2000/svg">
<mask id="mask0_2222_167" style="mask-type:alpha" maskUnits="userSpaceOnUse" x="0" y="0" width="20" height="21">
<rect y="0.5" width="20" height="20" fill="#D9D9D9"/>
</mask>
<g mask="url(#mask0_2222_167)">
<path d="M17.4582 19.1458L14.9998 16.6875V18.5417H13.3332V13.8333H18.0415V15.5H16.1665L18.6248 17.9583L17.4582 19.1458ZM9.99984 18.8333C8.84706 18.8333 7.76373 18.6146 6.74984 18.1771C5.73595 17.7396 4.854 17.1458 4.104 16.3958C3.354 15.6458 2.76025 14.7639 2.32275 13.75C1.88525 12.7361 1.6665 11.6528 1.6665 10.5C1.6665 9.34721 1.88525 8.26388 2.32275 7.24999C2.76025 6.2361 3.354 5.35416 4.104 4.60416C4.854 3.85416 5.73595 3.26041 6.74984 2.82291C7.76373 2.38541 8.84706 2.16666 9.99984 2.16666C11.1526 2.16666 12.2359 2.38541 13.2498 2.82291C14.2637 3.26041 15.1457 3.85416 15.8957 4.60416C16.6457 5.35416 17.2394 6.2361 17.6769 7.24999C18.1144 8.26388 18.3332 9.34721 18.3332 10.5C18.3332 10.7778 18.3193 11.0555 18.2915 11.3333C18.2637 11.6111 18.2221 11.8889 18.1665 12.1667H16.4582C16.5276 11.8889 16.5797 11.6111 16.6144 11.3333C16.6491 11.0555 16.6665 10.7778 16.6665 10.5C16.6665 10.2222 16.6491 9.94443 16.6144 9.66666C16.5797 9.38888 16.5276 9.1111 16.4582 8.83332H13.6248C13.6665 9.1111 13.6978 9.38888 13.7186 9.66666C13.7394 9.94443 13.7498 10.2222 13.7498 10.5C13.7498 10.7778 13.7394 11.0555 13.7186 11.3333C13.6978 11.6111 13.6665 11.8889 13.6248 12.1667H11.9582C11.9998 11.8889 12.0311 11.6111 12.0519 11.3333C12.0728 11.0555 12.0832 10.7778 12.0832 10.5C12.0832 10.2222 12.0728 9.94443 12.0519 9.66666C12.0311 9.38888 11.9998 9.1111 11.9582 8.83332H8.0415C7.99984 9.1111 7.96859 9.38888 7.94775 9.66666C7.92692 9.94443 7.9165 10.2222 7.9165 10.5C7.9165 10.7778 7.92692 11.0555 7.94775 11.3333C7.96859 11.6111 7.99984 11.8889 8.0415 12.1667H10.8332V13.8333H8.4165C8.58317 14.4305 8.79845 15.0035 9.06234 15.5521C9.32623 16.1007 9.63873 16.625 9.99984 17.125C10.2776 17.125 10.5554 17.1076 10.8332 17.0729C11.1109 17.0382 11.3887 17.0069 11.6665 16.9792V18.6875C11.3887 18.7153 11.1109 18.7465 10.8332 18.7812C10.5554 18.816 10.2776 18.8333 9.99984 18.8333ZM3.5415 12.1667H6.37484C6.33317 11.8889 6.30192 11.6111 6.28109 11.3333C6.26025 11.0555 6.24984 10.7778 6.24984 10.5C6.24984 10.2222 6.26025 9.94443 6.28109 9.66666C6.30192 9.38888 6.33317 9.1111 6.37484 8.83332H3.5415C3.47206 9.1111 3.41998 9.38888 3.38525 9.66666C3.35053 9.94443 3.33317 10.2222 3.33317 10.5C3.33317 10.7778 3.35053 11.0555 3.38525 11.3333C3.41998 11.6111 3.47206 11.8889 3.5415 12.1667ZM4.24984 7.16666H6.70817C6.83317 6.65277 6.98942 6.1493 7.17692 5.65624C7.36442 5.16318 7.58317 4.68055 7.83317 4.20832C7.06928 4.45832 6.38178 4.8368 5.77067 5.34374C5.15956 5.85068 4.65262 6.45832 4.24984 7.16666ZM7.83317 16.7917C7.58317 16.3194 7.36442 15.8368 7.17692 15.3437C6.98942 14.8507 6.83317 14.3472 6.70817 13.8333H4.24984C4.65262 14.5417 5.15956 15.1493 5.77067 15.6562C6.38178 16.1632 7.06928 16.5417 7.83317 16.7917ZM8.4165 7.16666H11.5832C11.4165 6.56943 11.2012 5.99652 10.9373 5.44791C10.6734 4.8993 10.3609 4.37499 9.99984 3.87499C9.63873 4.37499 9.32623 4.8993 9.06234 5.44791C8.79845 5.99652 8.58317 6.56943 8.4165 7.16666ZM13.2915 7.16666H15.7498C15.3471 6.45832 14.8401 5.85068 14.229 5.34374C13.6179 4.8368 12.9304 4.45832 12.1665 4.20832C12.4165 4.68055 12.6353 5.16318 12.8228 5.65624C13.0103 6.1493 13.1665 6.65277 13.2915 7.16666Z" fill="white"/>
</g>
</svg>
