<svg width="15" height="12" viewBox="0 0 15 12" fill="none" xmlns="http://www.w3.org/2000/svg">
<path d="M1.9 11.5999C1.515 11.5999 1.18542 11.4628 0.91125 11.1887C0.637083 10.9145 0.5 10.5849 0.5 10.1999V1.7999C0.5 1.4149 0.637083 1.08532 0.91125 0.811152C1.18542 0.536986 1.515 0.399902 1.9 0.399902H13.1C13.485 0.399902 13.8146 0.536986 14.0887 0.811152C14.3629 1.08532 14.5 1.4149 14.5 1.7999V10.1999C14.5 10.5849 14.3629 10.9145 14.0887 11.1887C13.8146 11.4628 13.485 11.5999 13.1 11.5999H1.9ZM1.9 10.1999H13.1V3.1999H1.9V10.1999ZM6.765 9.1849L4.28 6.6999L5.295 5.6849L6.765 7.1549L9.705 4.2149L10.72 5.2299L6.765 9.1849Z" fill="white"/>
</svg>
