<svg width="20" height="20" viewBox="0 0 20 20" fill="none" xmlns="http://www.w3.org/2000/svg">
<mask id="mask0_156_591" style="mask-type:alpha" maskUnits="userSpaceOnUse" x="0" y="0" width="20" height="20">
<rect width="20" height="20" fill="#D9D9D9"/>
</mask>
<g mask="url(#mask0_156_591)">
<path d="M11.6666 18.3333V15.7708L16.2708 11.1875C16.3958 11.0625 16.5346 10.9722 16.6874 10.9167C16.8402 10.8611 16.993 10.8333 17.1458 10.8333C17.3124 10.8333 17.4721 10.8646 17.6249 10.9271C17.7777 10.9896 17.9166 11.0833 18.0416 11.2083L18.8124 11.9792C18.9235 12.1042 19.0103 12.2431 19.0728 12.3958C19.1353 12.5486 19.1666 12.7014 19.1666 12.8542C19.1666 13.0069 19.1388 13.1632 19.0833 13.3229C19.0277 13.4826 18.9374 13.625 18.8124 13.75L14.2291 18.3333H11.6666ZM12.9166 17.0833H13.7083L16.2291 14.5417L15.8541 14.1458L15.4583 13.7708L12.9166 16.2917V17.0833ZM4.99992 18.3333C4.54159 18.3333 4.14922 18.1701 3.82284 17.8438C3.49645 17.5174 3.33325 17.125 3.33325 16.6667V3.33334C3.33325 2.87501 3.49645 2.48264 3.82284 2.15626C4.14922 1.82987 4.54159 1.66667 4.99992 1.66667H11.6666L16.6666 6.66667V9.16667H14.9999V7.5H10.8333V3.33334H4.99992V16.6667H9.99992V18.3333H4.99992ZM15.8541 14.1458L15.4583 13.7708L16.2291 14.5417L15.8541 14.1458Z" fill="#1C1B1F"/>
</g>
</svg>
