<svg width="21" height="20" viewBox="0 0 21 20" fill="none" xmlns="http://www.w3.org/2000/svg">
<mask id="mask0_228_1471" style="mask-type:alpha" maskUnits="userSpaceOnUse" x="0" y="0" width="21" height="20">
<rect x="0.5" width="20" height="20" fill="#D9D9D9"/>
</mask>
<g mask="url(#mask0_228_1471)">
<path d="M9.24967 12.5001H11.7497L11.2705 9.81258C11.5483 9.67369 11.767 9.4723 11.9268 9.20841C12.0865 8.94453 12.1663 8.65286 12.1663 8.33341C12.1663 7.87508 12.0031 7.48272 11.6768 7.15633C11.3504 6.82994 10.958 6.66675 10.4997 6.66675C10.0413 6.66675 9.64898 6.82994 9.32259 7.15633C8.9962 7.48272 8.83301 7.87508 8.83301 8.33341C8.83301 8.65286 8.91287 8.94453 9.07259 9.20841C9.23231 9.4723 9.45106 9.67369 9.72884 9.81258L9.24967 12.5001ZM10.4997 18.3334C8.56912 17.8473 6.97537 16.7397 5.71842 15.0105C4.46148 13.2813 3.83301 11.3612 3.83301 9.25008V4.16675L10.4997 1.66675L17.1663 4.16675V9.25008C17.1663 11.3612 16.5379 13.2813 15.2809 15.0105C14.024 16.7397 12.4302 17.8473 10.4997 18.3334ZM10.4997 16.5834C11.9441 16.1251 13.1386 15.2084 14.083 13.8334C15.0275 12.4584 15.4997 10.9306 15.4997 9.25008V5.31258L10.4997 3.43758L5.49967 5.31258V9.25008C5.49967 10.9306 5.9719 12.4584 6.91634 13.8334C7.86079 15.2084 9.05523 16.1251 10.4997 16.5834Z" fill="#1C1B1F"/>
</g>
</svg>
