<svg width="96" height="96" viewBox="0 0 96 96" fill="none" xmlns="http://www.w3.org/2000/svg">
<path d="M19.9099 92.25H76.0899M47.9999 52.01V56.14M47.9999 23.25V43.99M12.1099 3.96997H83.8999C88.4562 3.96997 92.1499 7.66362 92.1499 12.22V67.95C92.1499 72.5063 88.4562 76.2 83.8999 76.2H12.1099C7.55351 76.2 3.85986 72.5063 3.85986 67.95V12.22C3.85986 7.66362 7.55351 3.96997 12.1099 3.96997ZM35.9599 76.2H60.0399V92.25H35.9599V76.2ZM72.6699 40.09C72.6699 53.7148 61.6247 64.76 47.9999 64.76C34.375 64.76 23.3299 53.7148 23.3299 40.09C23.3299 26.4651 34.375 15.42 47.9999 15.42C61.6247 15.42 72.6699 26.4651 72.6699 40.09Z" stroke="#D1026A" stroke-width="6" stroke-linecap="round" stroke-linejoin="round"/>
</svg>
