<svg width="20" height="20" viewBox="0 0 20 20" fill="none" xmlns="http://www.w3.org/2000/svg">
<mask id="mask0_69_185" style="mask-type:alpha" maskUnits="userSpaceOnUse" x="0" y="0" width="20" height="20">
<rect width="20" height="20" fill="#D9D9D9"/>
</mask>
<g mask="url(#mask0_69_185)">
<path d="M9.95841 15C10.2501 15 10.4966 14.8993 10.698 14.6979C10.8994 14.4965 11.0001 14.25 11.0001 13.9583C11.0001 13.6667 10.8994 13.4201 10.698 13.2187C10.4966 13.0174 10.2501 12.9167 9.95841 12.9167C9.66675 12.9167 9.42022 13.0174 9.21883 13.2187C9.01744 13.4201 8.91675 13.6667 8.91675 13.9583C8.91675 14.25 9.01744 14.4965 9.21883 14.6979C9.42022 14.8993 9.66675 15 9.95841 15ZM9.20841 11.7917H10.7501C10.7501 11.3333 10.8022 10.9722 10.9063 10.7083C11.0105 10.4444 11.3056 10.0833 11.7917 9.625C12.1529 9.26389 12.4376 8.92014 12.6459 8.59375C12.8542 8.26736 12.9584 7.875 12.9584 7.41666C12.9584 6.63889 12.6737 6.04166 12.1042 5.625C11.5348 5.20833 10.8612 5 10.0834 5C9.29175 5 8.64939 5.20833 8.15633 5.625C7.66328 6.04166 7.31953 6.54166 7.12508 7.125L8.50008 7.66666C8.56953 7.41666 8.72578 7.14583 8.96883 6.85416C9.21189 6.5625 9.58342 6.41666 10.0834 6.41666C10.5279 6.41666 10.8612 6.53819 11.0834 6.78125C11.3056 7.0243 11.4167 7.29166 11.4167 7.58333C11.4167 7.86111 11.3334 8.12153 11.1667 8.36458C11.0001 8.60764 10.7917 8.83333 10.5417 9.04166C9.93064 9.58333 9.55564 9.99305 9.41675 10.2708C9.27786 10.5486 9.20841 11.0556 9.20841 11.7917ZM10.0001 18.3333C8.8473 18.3333 7.76397 18.1146 6.75008 17.6771C5.73619 17.2396 4.85425 16.6458 4.10425 15.8958C3.35425 15.1458 2.7605 14.2639 2.323 13.25C1.8855 12.2361 1.66675 11.1528 1.66675 10C1.66675 8.84722 1.8855 7.76389 2.323 6.75C2.7605 5.73611 3.35425 4.85416 4.10425 4.10416C4.85425 3.35416 5.73619 2.76041 6.75008 2.32291C7.76397 1.88541 8.8473 1.66666 10.0001 1.66666C11.1529 1.66666 12.2362 1.88541 13.2501 2.32291C14.264 2.76041 15.1459 3.35416 15.8959 4.10416C16.6459 4.85416 17.2397 5.73611 17.6772 6.75C18.1147 7.76389 18.3334 8.84722 18.3334 10C18.3334 11.1528 18.1147 12.2361 17.6772 13.25C17.2397 14.2639 16.6459 15.1458 15.8959 15.8958C15.1459 16.6458 14.264 17.2396 13.2501 17.6771C12.2362 18.1146 11.1529 18.3333 10.0001 18.3333ZM10.0001 16.6667C11.8612 16.6667 13.4376 16.0208 14.7292 14.7292C16.0209 13.4375 16.6667 11.8611 16.6667 10C16.6667 8.13889 16.0209 6.5625 14.7292 5.27083C13.4376 3.97916 11.8612 3.33333 10.0001 3.33333C8.13897 3.33333 6.56258 3.97916 5.27091 5.27083C3.97925 6.5625 3.33341 8.13889 3.33341 10C3.33341 11.8611 3.97925 13.4375 5.27091 14.7292C6.56258 16.0208 8.13897 16.6667 10.0001 16.6667Z" fill="#1C1B1F"/>
</g>
</svg>
