<svg width="19" height="19" viewBox="0 0 19 19" fill="none" xmlns="http://www.w3.org/2000/svg">
<mask id="mask0_264_1162" style="mask-type:alpha" maskUnits="userSpaceOnUse" x="0" y="0" width="19" height="19">
<rect x="0.5" y="0.5" width="18" height="18" fill="#D9D9D9"/>
</mask>
<g mask="url(#mask0_264_1162)">
<path d="M5 2.75H13.25V12.5L8 17.75L7.0625 16.8125C6.975 16.725 6.90313 16.6062 6.84688 16.4562C6.79063 16.3062 6.7625 16.1625 6.7625 16.025V15.7625L7.5875 12.5H2.75C2.35 12.5 2 12.35 1.7 12.05C1.4 11.75 1.25 11.4 1.25 11V9.5C1.25 9.4125 1.2625 9.31875 1.2875 9.21875C1.3125 9.11875 1.3375 9.025 1.3625 8.9375L3.6125 3.65C3.725 3.4 3.9125 3.1875 4.175 3.0125C4.4375 2.8375 4.7125 2.75 5 2.75ZM11.75 4.25H5L2.75 9.5V11H9.5L8.4875 15.125L11.75 11.8625V4.25ZM13.25 12.5V11H15.5V4.25H13.25V2.75H17V12.5H13.25Z" fill="#1C1B1F"/>
</g>
</svg>
