<svg width="18" height="19" viewBox="0 0 18 19" fill="none" xmlns="http://www.w3.org/2000/svg">
<mask id="mask0_264_1168" style="mask-type:alpha" maskUnits="userSpaceOnUse" x="0" y="0" width="18" height="19">
<rect y="0.5" width="18" height="18" fill="#D9D9D9"/>
</mask>
<g mask="url(#mask0_264_1168)">
<path d="M13.5 16.25H5.25V6.5L10.5 1.25L11.4375 2.1875C11.525 2.275 11.5969 2.39375 11.6531 2.54375C11.7094 2.69375 11.7375 2.8375 11.7375 2.975V3.2375L10.9125 6.5H15.75C16.15 6.5 16.5 6.65 16.8 6.95C17.1 7.25 17.25 7.6 17.25 8V9.5C17.25 9.5875 17.2375 9.68125 17.2125 9.78125C17.1875 9.88125 17.1625 9.975 17.1375 10.0625L14.8875 15.35C14.775 15.6 14.5875 15.8125 14.325 15.9875C14.0625 16.1625 13.7875 16.25 13.5 16.25ZM6.75 14.75H13.5L15.75 9.5V8H9L10.0125 3.875L6.75 7.1375V14.75ZM5.25 6.5V8H3V14.75H5.25V16.25H1.5V6.5H5.25Z" fill="#1C1B1F"/>
</g>
</svg>
