<svg width="17" height="18" viewBox="0 0 17 18" fill="none" xmlns="http://www.w3.org/2000/svg">
<path d="M8.49984 17.3334C7.34706 17.3334 6.26373 17.1147 5.24984 16.6772C4.23595 16.2397 3.354 15.6459 2.604 14.8959C1.854 14.1459 1.26025 13.264 0.822754 12.2501C0.385254 11.2362 0.166504 10.1529 0.166504 9.00008H1.83317C1.83317 9.91675 2.00678 10.7813 2.354 11.5938C2.70123 12.4063 3.17692 13.1147 3.78109 13.7188C4.38525 14.323 5.09359 14.8022 5.90609 15.1563C6.71859 15.5105 7.58317 15.6876 8.49984 15.6876C10.3609 15.6876 11.9373 15.0417 13.229 13.7501C14.5207 12.4584 15.1665 10.882 15.1665 9.02092C15.1665 7.1598 14.5207 5.58341 13.229 4.29175C11.9373 3.00008 10.3609 2.35425 8.49984 2.35425C7.26373 2.35425 6.1422 2.65633 5.13525 3.2605C4.12831 3.86466 3.33317 4.66675 2.74984 5.66675H5.1665V7.33341H0.166504V2.33341H1.83317V4.00008C2.59706 2.98619 3.55539 2.17716 4.70817 1.573C5.86095 0.968831 7.12484 0.666748 8.49984 0.666748C9.65261 0.666748 10.7359 0.885498 11.7498 1.323C12.7637 1.7605 13.6457 2.35425 14.3957 3.10425C15.1457 3.85425 15.7394 4.73619 16.1769 5.75008C16.6144 6.76397 16.8332 7.8473 16.8332 9.00008C16.8332 10.1529 16.6144 11.2362 16.1769 12.2501C15.7394 13.264 15.1457 14.1459 14.3957 14.8959C13.6457 15.6459 12.7637 16.2397 11.7498 16.6772C10.7359 17.1147 9.65261 17.3334 8.49984 17.3334ZM6.83317 12.3334C6.59706 12.3334 6.39914 12.2536 6.23942 12.0938C6.0797 11.9341 5.99984 11.7362 5.99984 11.5001V9.00008C5.99984 8.76397 6.0797 8.56605 6.23942 8.40633C6.39914 8.24661 6.59706 8.16675 6.83317 8.16675V7.33341C6.83317 6.87508 6.99637 6.48272 7.32275 6.15633C7.64914 5.82994 8.0415 5.66675 8.49984 5.66675C8.95817 5.66675 9.35053 5.82994 9.67692 6.15633C10.0033 6.48272 10.1665 6.87508 10.1665 7.33341V8.16675C10.4026 8.16675 10.6005 8.24661 10.7603 8.40633C10.92 8.56605 10.9998 8.76397 10.9998 9.00008V11.5001C10.9998 11.7362 10.92 11.9341 10.7603 12.0938C10.6005 12.2536 10.4026 12.3334 10.1665 12.3334H6.83317ZM7.6665 8.16675H9.33317V7.33341C9.33317 7.0973 9.25331 6.89939 9.09359 6.73966C8.93387 6.57994 8.73595 6.50008 8.49984 6.50008C8.26373 6.50008 8.06581 6.57994 7.90609 6.73966C7.74637 6.89939 7.6665 7.0973 7.6665 7.33341V8.16675Z" fill="#D1026A"/>
</svg>
