<svg width="137" height="35" viewBox="0 0 137 35" fill="none" xmlns="http://www.w3.org/2000/svg">
<g clip-path="url(#clip0_24_518)">
<mask id="mask0_24_518" style="mask-type:luminance" maskUnits="userSpaceOnUse" x="0" y="3" width="17" height="29">
<path d="M1.48358 3.35495C1.20628 3.35495 0.955163 3.46878 0.773375 3.65278C0.591588 3.83678 0.479126 4.09094 0.479126 4.37162V30.0955C0.479126 30.6584 0.928973 31.1121 1.48358 31.1121H9.34666C13.1257 31.1121 16.1991 27.9124 16.2007 24.1717C16.2007 20.2142 13.1257 17.2328 9.34666 17.2328C13.1257 17.2328 16.2007 14.242 16.2007 10.2923C16.2007 6.46577 13.2505 3.35339 9.34666 3.35339H1.48358V3.35495Z" fill="white"/>
</mask>
<g mask="url(#mask0_24_518)">
<path d="M-13.2319 17.2343L8.3407 -4.60065L29.9133 17.2343L8.3407 39.0692L-13.2319 17.2343Z" fill="url(#paint0_linear_24_518)"/>
</g>
<mask id="mask1_24_518" style="mask-type:luminance" maskUnits="userSpaceOnUse" x="18" y="0" width="16" height="34">
<path d="M30.662 0.786745L30.6558 0.788304L19.1123 3.35492H19.2202C19.1539 3.35492 19.0892 3.36116 19.0276 3.37363L18.9721 3.38611C18.7934 3.43289 18.6347 3.52644 18.5099 3.65275C18.3282 3.83675 18.2157 4.09091 18.2157 4.37159V30.0611C18.2172 30.0674 18.2172 30.0721 18.2172 30.0783V30.1126C18.2234 30.5741 18.5346 30.9609 18.9552 31.0762L18.9737 31.0809L19.043 31.0965C19.1 31.1074 19.1601 31.1121 19.2202 31.1121L19.1246 31.1137L30.7729 33.6959C30.9485 33.7333 31.1303 33.7536 31.3167 33.7536C32.7587 33.7536 33.9311 32.5716 33.9372 31.1137V31.1012C33.9372 30.3683 33.643 29.7056 33.17 29.2253C33.1469 29.202 33.1223 29.1786 33.0976 29.1567L23.7849 18.0249C23.5831 17.8409 23.4567 17.5727 23.4567 17.2748C23.4567 17.2608 23.4567 17.2483 23.4583 17.2343C23.4675 16.9692 23.5784 16.7306 23.751 16.556C23.7587 16.5482 23.7664 16.5404 23.7756 16.5326L33.2917 5.09822C33.6923 4.63199 33.9372 4.0223 33.9372 3.35492C33.9372 2.62205 33.643 1.9609 33.17 1.48064C32.6955 1.00037 32.0408 0.704102 31.3167 0.704102C31.0903 0.704102 30.8715 0.733728 30.662 0.786745Z" fill="white"/>
</mask>
<g mask="url(#mask1_24_518)">
<path d="M1.89026 17.2296L26.0772 -7.25146L50.2642 17.2296L26.0772 41.7107L1.89026 17.2296Z" fill="url(#paint1_linear_24_518)"/>
</g>
<path d="M136.428 16.5451V27.7955C136.428 28.3475 135.986 28.795 135.441 28.795H132.173C131.628 28.795 131.186 28.3475 131.186 27.7955V16.517C130.881 8.62384 119.801 8.5755 119.519 16.5124V27.7955C119.519 28.3475 119.077 28.795 118.532 28.795H115.266C114.72 28.795 114.278 28.3475 114.278 27.7955V17.4448C114.646 3.14912 134.953 2.37571 136.428 16.5451Z" fill="#0B0204"/>
<path d="M85.9916 14.6053C82.8057 2.89495 66.28 3.76816 64.2973 15.7171C64.0662 16.3564 64.1956 29.0632 64.1663 30.0986C64.1663 30.6599 64.6162 31.1153 65.1708 31.1153H68.4029C68.9575 31.1153 69.4074 30.6599 69.4074 30.0986V26.9862C77.9283 32.319 88.5043 24.3214 85.9916 14.6053ZM82.1155 17.4464C82.1202 24.4383 72.9229 26.9581 69.4074 21.064C68.0825 18.9917 68.0825 15.9011 69.4074 13.8272C72.9861 7.91903 82.0847 10.4435 82.1155 17.4464Z" fill="#0B0204"/>
<path d="M107.835 9.50795C99.8584 1.54302 86.611 9.14151 89.2238 20.1455C91.4391 29.7212 104.531 31.7436 109.467 23.2844C109.712 22.8774 109.431 22.3551 108.96 22.3551H105.518C105.11 22.3551 104.711 22.4954 104.398 22.7605C103.576 23.4606 102.577 23.9752 101.453 24.2247C97.8849 25.0558 94.1505 22.6981 93.3294 19.0836C93.3294 19.0821 93.3279 19.0805 93.3279 19.079H109.94C110.245 19.1117 110.551 18.9948 110.753 18.7858C110.935 18.6018 111.048 18.3476 111.048 18.067C111.26 14.8766 110.001 11.6489 107.835 9.50795ZM93.3294 15.8091C95.0117 8.86552 104.884 8.7127 106.655 15.8091H93.3294Z" fill="#0B0204"/>
<path d="M60.9358 14.4946C57.2954 -1.7627 34.0035 0.532602 33.6168 17.2359C33.5706 28.466 46.3589 34.9683 55.268 28.6438C59.6741 25.667 62.0727 19.8134 60.9358 14.4946ZM47.4111 26.8194C34.9094 26.4295 34.9124 8.17943 47.4111 7.79117C59.9098 8.18099 59.9067 26.4311 47.4111 26.8194Z" fill="#0B0204"/>
</g>
<defs>
<linearGradient id="paint0_linear_24_518" x1="-2.15738" y1="27.853" x2="17.3679" y2="8.56226" gradientUnits="userSpaceOnUse">
<stop stop-color="#007FFF"/>
<stop offset="0.5" stop-color="#45008A"/>
<stop offset="1" stop-color="#D1026A"/>
</linearGradient>
<linearGradient id="paint1_linear_24_518" x1="15.5871" y1="27.8503" x2="37.6716" y2="6.03111" gradientUnits="userSpaceOnUse">
<stop stop-color="#007FFF"/>
<stop offset="0.5" stop-color="#45008A"/>
<stop offset="1" stop-color="#D1026A"/>
</linearGradient>
<clipPath id="clip0_24_518">
<rect width="137" height="34.3983" fill="white" transform="translate(0 0.00866699)"/>
</clipPath>
</defs>
</svg>
