<svg width="46" height="44" viewBox="0 0 46 44" fill="none" xmlns="http://www.w3.org/2000/svg">
<path d="M15.9173 43.875L11.959 37.2083L4.45898 35.5417L5.18815 27.8333L0.0839844 22L5.18815 16.1667L4.45898 8.45833L11.959 6.79167L15.9173 0.125L23.0007 3.14583L30.084 0.125L34.0423 6.79167L41.5423 8.45833L40.8132 16.1667L45.9173 22L40.8132 27.8333L41.5423 35.5417L34.0423 37.2083L30.084 43.875L23.0007 40.8542L15.9173 43.875ZM17.6882 38.5625L23.0007 36.2708L28.4173 38.5625L31.334 33.5625L37.0631 32.2083L36.5423 26.375L40.3965 22L36.5423 17.5208L37.0631 11.6875L31.334 10.4375L28.3132 5.4375L23.0007 7.72917L17.584 5.4375L14.6673 10.4375L8.93815 11.6875L9.45898 17.5208L5.60482 22L9.45898 26.375L8.93815 32.3125L14.6673 33.5625L17.6882 38.5625ZM20.8132 29.3958L32.584 17.625L29.6673 14.6042L20.8132 23.4583L16.334 19.0833L13.4173 22L20.8132 29.3958Z" fill="#D1026A"/>
</svg>
