<svg width="21" height="20" viewBox="0 0 21 20" fill="none" xmlns="http://www.w3.org/2000/svg">
<mask id="mask0_228_1409" style="mask-type:alpha" maskUnits="userSpaceOnUse" x="0" y="0" width="21" height="20">
<rect x="0.5" width="20" height="20" fill="#D9D9D9"/>
</mask>
<g mask="url(#mask0_228_1409)">
<path d="M3.83301 16.6666V14.3333C3.83301 13.861 3.95454 13.427 4.19759 13.0312C4.44065 12.6353 4.76356 12.3333 5.16634 12.1249C6.02745 11.6944 6.90245 11.3714 7.79134 11.1562C8.68023 10.9409 9.58301 10.8333 10.4997 10.8333C11.0136 10.8333 11.5205 10.8645 12.0205 10.927C12.5205 10.9895 13.0205 11.0902 13.5205 11.2291L12.1247 12.6458C11.8469 12.6041 11.5761 12.5694 11.3122 12.5416C11.0483 12.5138 10.7775 12.4999 10.4997 12.4999C9.7219 12.4999 8.95106 12.5937 8.18717 12.7812C7.42329 12.9687 6.66634 13.2499 5.91634 13.6249C5.79134 13.6944 5.69065 13.7916 5.61426 13.9166C5.53787 14.0416 5.49967 14.1805 5.49967 14.3333V14.9999H10.4997V16.6666H3.83301ZM12.1663 17.4999V14.9374L16.7705 10.3541C16.8955 10.2291 17.0344 10.1388 17.1872 10.0833C17.34 10.0277 17.4927 9.99992 17.6455 9.99992C17.8122 9.99992 17.9719 10.0312 18.1247 10.0937C18.2775 10.1562 18.4163 10.2499 18.5413 10.3749L19.3122 11.1458C19.4233 11.2708 19.5101 11.4096 19.5726 11.5624C19.6351 11.7152 19.6663 11.868 19.6663 12.0208C19.6663 12.1735 19.6386 12.3298 19.583 12.4895C19.5275 12.6492 19.4372 12.7916 19.3122 12.9166L14.7288 17.4999H12.1663ZM13.4163 16.2499H14.208L16.7288 13.7083L16.3538 13.3124L15.958 12.9374L13.4163 15.4583V16.2499ZM16.3538 13.3124L15.958 12.9374L16.7288 13.7083L16.3538 13.3124ZM10.4997 9.99992C9.58301 9.99992 8.79829 9.67353 8.14551 9.02075C7.49273 8.36797 7.16634 7.58325 7.16634 6.66659C7.16634 5.74992 7.49273 4.9652 8.14551 4.31242C8.79829 3.65964 9.58301 3.33325 10.4997 3.33325C11.4163 3.33325 12.2011 3.65964 12.8538 4.31242C13.5066 4.9652 13.833 5.74992 13.833 6.66659C13.833 7.58325 13.5066 8.36797 12.8538 9.02075C12.2011 9.67353 11.4163 9.99992 10.4997 9.99992ZM10.4997 8.33325C10.958 8.33325 11.3504 8.17006 11.6768 7.84367C12.0031 7.51728 12.1663 7.12492 12.1663 6.66659C12.1663 6.20825 12.0031 5.81589 11.6768 5.4895C11.3504 5.16311 10.958 4.99992 10.4997 4.99992C10.0413 4.99992 9.64898 5.16311 9.32259 5.4895C8.9962 5.81589 8.83301 6.20825 8.83301 6.66659C8.83301 7.12492 8.9962 7.51728 9.32259 7.84367C9.64898 8.17006 10.0413 8.33325 10.4997 8.33325Z" fill="#1C1B1F"/>
</g>
</svg>
