<svg width="58" height="58" viewBox="0 0 58 58" fill="none" xmlns="http://www.w3.org/2000/svg">
<mask id="mask0_1219_192" style="mask-type:alpha" maskUnits="userSpaceOnUse" x="0" y="0" width="58" height="58">
<rect width="58" height="58" fill="#D9D9D9"/>
</mask>
<g mask="url(#mask0_1219_192)">
<path d="M26.5834 41.0834H31.4167V26.5834H26.5834V41.0834ZM29 21.75C29.6847 21.75 30.2587 21.5184 30.7219 21.0552C31.1851 20.5921 31.4167 20.0181 31.4167 19.3334C31.4167 18.6487 31.1851 18.0747 30.7219 17.6115C30.2587 17.1483 29.6847 16.9167 29 16.9167C28.3153 16.9167 27.7413 17.1483 27.2781 17.6115C26.815 18.0747 26.5834 18.6487 26.5834 19.3334C26.5834 20.0181 26.815 20.5921 27.2781 21.0552C27.7413 21.5184 28.3153 21.75 29 21.75ZM29 53.1667C23.4014 51.757 18.7795 48.5448 15.1344 43.5302C11.4893 38.5157 9.66669 32.9473 9.66669 26.825V12.0834L29 4.83337L48.3334 12.0834V26.825C48.3334 32.9473 46.5108 38.5157 42.8656 43.5302C39.2205 48.5448 34.5986 51.757 29 53.1667ZM29 48.0917C33.1889 46.7625 36.6528 44.1042 39.3917 40.1167C42.1306 36.1292 43.5 31.6987 43.5 26.825V15.4063L29 9.96879L14.5 15.4063V26.825C14.5 31.6987 15.8695 36.1292 18.6084 40.1167C21.3472 44.1042 24.8111 46.7625 29 48.0917Z" fill="#D1026A"/>
</g>
</svg>
