<svg width="50" height="50" viewBox="0 0 50 50" fill="none" xmlns="http://www.w3.org/2000/svg">
<mask id="mask0_1429_857" style="mask-type:alpha" maskUnits="userSpaceOnUse" x="0" y="0" width="50" height="50">
<rect width="50" height="50" fill="#D9D9D9"/>
</mask>
<g mask="url(#mask0_1429_857)">
<path d="M22.9163 39.5834H27.083V30.8854L30.4163 34.2188L33.333 31.25L24.9997 22.9167L16.6663 31.25L19.6351 34.1667L22.9163 30.8854V39.5834ZM12.4997 45.8334C11.3538 45.8334 10.3729 45.4254 9.55697 44.6094C8.74099 43.7934 8.33301 42.8125 8.33301 41.6667V8.33335C8.33301 7.18752 8.74099 6.20662 9.55697 5.39065C10.3729 4.57467 11.3538 4.16669 12.4997 4.16669H29.1663L41.6663 16.6667V41.6667C41.6663 42.8125 41.2584 43.7934 40.4424 44.6094C39.6264 45.4254 38.6455 45.8334 37.4997 45.8334H12.4997ZM27.083 18.75V8.33335H12.4997V41.6667H37.4997V18.75H27.083Z" fill="#D1026A"/>
</g>
</svg>
