<svg width="18" height="19" viewBox="0 0 18 19" fill="none" xmlns="http://www.w3.org/2000/svg">
<mask id="mask0_18_340" style="mask-type:alpha" maskUnits="userSpaceOnUse" x="0" y="0" width="18" height="19">
<rect y="0.5" width="18" height="18" fill="#D9D9D9"/>
</mask>
<g mask="url(#mask0_18_340)">
<path d="M9 12.5C9.9375 12.5 10.7344 12.1719 11.3906 11.5156C12.0469 10.8594 12.375 10.0625 12.375 9.125C12.375 8.1875 12.0469 7.39062 11.3906 6.73438C10.7344 6.07812 9.9375 5.75 9 5.75C8.0625 5.75 7.26562 6.07812 6.60938 6.73438C5.95312 7.39062 5.625 8.1875 5.625 9.125C5.625 10.0625 5.95312 10.8594 6.60938 11.5156C7.26562 12.1719 8.0625 12.5 9 12.5ZM9 11.15C8.4375 11.15 7.95938 10.9531 7.56563 10.5594C7.17188 10.1656 6.975 9.6875 6.975 9.125C6.975 8.5625 7.17188 8.08437 7.56563 7.69063C7.95938 7.29688 8.4375 7.1 9 7.1C9.5625 7.1 10.0406 7.29688 10.4344 7.69063C10.8281 8.08437 11.025 8.5625 11.025 9.125C11.025 9.6875 10.8281 10.1656 10.4344 10.5594C10.0406 10.9531 9.5625 11.15 9 11.15ZM9 14.75C7.175 14.75 5.5125 14.2406 4.0125 13.2219C2.5125 12.2031 1.425 10.8375 0.75 9.125C1.425 7.4125 2.5125 6.04688 4.0125 5.02813C5.5125 4.00938 7.175 3.5 9 3.5C10.825 3.5 12.4875 4.00938 13.9875 5.02813C15.4875 6.04688 16.575 7.4125 17.25 9.125C16.575 10.8375 15.4875 12.2031 13.9875 13.2219C12.4875 14.2406 10.825 14.75 9 14.75ZM9 13.25C10.4125 13.25 11.7094 12.8781 12.8906 12.1344C14.0719 11.3906 14.975 10.3875 15.6 9.125C14.975 7.8625 14.0719 6.85938 12.8906 6.11562C11.7094 5.37187 10.4125 5 9 5C7.5875 5 6.29063 5.37187 5.10938 6.11562C3.92812 6.85938 3.025 7.8625 2.4 9.125C3.025 10.3875 3.92812 11.3906 5.10938 12.1344C6.29063 12.8781 7.5875 13.25 9 13.25Z" fill="#1C1B1F"/>
</g>
</svg>
